# xmcd
#
# Track frame offsets:
#	150
#	4648
#	23078
#	45329
#	62150
#	76815
#	98384
#	120057
#	139406
#	159186
#	180441
#
# Disc length: 2547 seconds
#
# Revision: 0
# Processed by: cddbd v1.5.2PL0 Copyright (c) Steve Scherf et al.
# Submitted via: dBpowerAMP V4.0
#
DISCID=6b09f10b
DTITLE=Bramwell and the left overs - under ground
DYEAR=1900
DGENRE=Blues rock
TTITLE0=Intro
TTITLE1=Monkey
TTITLE2=Now and Later
TTITLE3=Water's blues
TTITLE4=Easy oazy
TTITLE5=It's not easy
TTITLE6=Country drive
TTITLE7=Losing my name
TTITLE8=Mother
TTITLE9=Once Again
TTITLE10=Making the best of a rainy day
EXTD=
EXTT0=
EXTT1=
EXTT2=
EXTT3=
EXTT4=
EXTT5=
EXTT6=
EXTT7=
EXTT8=
EXTT9=
EXTT10=
PLAYORDER=
